<?xml version="1.0" encoding="UTF-8" standalone="no"?>
<svg xmlns:rdf="http://www.w3.org/1999/02/22-rdf-syntax-ns#" xmlns="http://www.w3.org/2000/svg" xml:space="preserve" height="169.8" width="520" version="1.1" xmlns:cc="http://creativecommons.org/ns#" xmlns:dc="http://purl.org/dc/elements/1.1/" viewBox="0 0 520.04784 169.85499"><defs><clipPath id="clipPath4150" clipPathUnits="userSpaceOnUse"><path d="m0 841.9h595.3v-841.9h-595.3v841.9z"/></clipPath></defs><g transform="matrix(3.515 0 0 -3.515 -329 2520)"><g clip-path="url(#clipPath4150)"><g transform="translate(155.2,707.1)"><path fill-rule="evenodd" fill="#231f20" d="m0 0v4.26h1.638c1.755 0 2.737-0.703 2.737-2.107s-1.052-2.153-2.854-2.153h-1.521zm-5.593-9.126h5.593v6.669h1.521c1.521 0 2.41-1.568 3.581-4.306l1.005-2.363h5.499l-1.895 4.212c-0.866 1.895-1.474 2.995-2.621 3.486 1.709 0.749 2.575 2.013 2.575 3.698 0 2.503-1.85 4.563-6.155 4.563h-9.103v-15.96z"/></g><g transform="translate(172.1,698)"><path fill-rule="evenodd" fill="#231f20" d="m0 0h12.05v3.37h-6.459v3.042h5.827v3.369h-5.827v2.808h6.366v3.37h-11.96v-15.96z"/></g><g transform="translate(196.1,701.8)"><path fill-rule="evenodd" fill="#231f20" d="m0 0v8.377h1.498c3.018 0 3.978-2.083 3.978-4.189 0-2.855-1.288-4.188-4.002-4.188h-1.474zm-5.593-3.791h9.009c5.429 0 7.652 4.142 7.652 7.769 0 3.698-2.48 8.19-8.658 8.19h-8.003v-15.96z"/></g><g transform="translate(155.5,686.2)"><path fill-rule="evenodd" fill="#231f20" d="m0 0h-3.896v1.918h3.639v1.463h-3.639v1.674h3.814v1.462h-5.803v-7.98h5.885v1.463z"/></g><g transform="translate(165.6,686.2)"><path fill-rule="evenodd" fill="#231f20" d="m0 0h-4.095v6.517h-1.988v-7.98h6.083v1.463z"/></g><g transform="translate(174,695.2)"><path fill-rule="evenodd" fill="#231f20" d="m0 0h-1.931l-0.865-1.707h0.865l1.931 1.707zm1.217-8.996h-3.896v1.918h3.638v1.463h-3.638v1.674h3.814v1.462h-5.803v-7.98h5.885v1.463z"/></g><g transform="translate(186.8,687.1)"><path fill-rule="evenodd" fill="#231f20" d="m0 0c-1.146-0.55-1.848-0.877-2.89-0.877-1.661 0-2.842 1.018-2.842 2.445 0 1.415 1.193 2.422 2.889 2.422 0.983 0 1.872-0.328 2.75-0.82v1.779c-0.784 0.468-1.779 0.701-2.89 0.701-3.054 0-4.797-1.988-4.797-4.117 0-2.059 1.544-4.072 4.645-4.072 1.181 0 2.024 0.222 3.135 0.795v1.744z"/></g><g transform="translate(198.1,692.7)"><path fill-rule="evenodd" fill="#231f20" d="m0 0h-7.769v-1.462h2.89v-6.517h1.989v6.517h2.89v1.462z"/></g><g transform="translate(203.9,691.2)"><path fill-rule="evenodd" fill="#231f20" d="m0 0h1.006c0.749 0 1.135-0.305 1.135-0.902 0-0.678-0.538-0.912-1.088-0.912h-1.053v1.814zm-1.989 1.462v-7.98h1.989v3.241h0.573c1.076 0 1.392-1.533 2.246-3.241h2.188c-1.123 2.34-1.368 3.323-2.188 3.733 0.913 0.421 1.369 1.076 1.369 1.953 0 1.194-0.971 2.294-2.609 2.294h-3.568z"/></g><path fill-rule="evenodd" fill="#231f20" d="m214.5 692.7h-1.989v-7.979h1.989v7.979z"/><g transform="translate(226.3,687.1)"><path fill-rule="evenodd" fill="#231f20" d="m0 0c-1.146-0.55-1.848-0.877-2.89-0.877-1.661 0-2.842 1.018-2.842 2.445 0 1.415 1.193 2.422 2.889 2.422 0.983 0 1.872-0.328 2.749-0.82v1.779c-0.783 0.468-1.778 0.701-2.889 0.701-3.054 0-4.797-1.988-4.797-4.117 0-2.059 1.544-4.072 4.645-4.072 1.181 0 2.024 0.222 3.135 0.795v1.744z"/></g><g transform="translate(235.3,687.7)"><path fill-rule="evenodd" fill="#231f20" d="m0 0h-2.457l1.17 3.101 1.287-3.101zm-0.164 5.008h-2.305l-3.217-7.98h2.106l0.596 1.579h3.569l0.655-1.579h2.141l-3.545 7.98z"/></g><g transform="translate(150.5,678.6)"><path fill-rule="evenodd" fill="#231f20" d="m0 0h1.65c1.638 0 3.779-0.515 3.779-3.218 0-2.702-2.141-3.218-3.779-3.218h-1.65v6.436zm-0.877 0.772v-7.98h2.468c2.562 0 4.774 1.077 4.774 3.99s-2.212 3.99-4.774 3.99h-2.468z"/></g><g transform="translate(164.3,679.4)"><path fill-rule="evenodd" fill="#231f20" d="m0 0h-4.446v-7.98h4.54v0.772h-3.662v2.867h3.463v0.772h-3.463v2.797h3.568v0.772z"/></g><g transform="translate(176.3,679.4)"><path fill-rule="evenodd" fill="#231f20" d="m0 0h-4.446v-7.98h4.54v0.772h-3.663v2.867h3.464v0.772h-3.464v2.797h3.569v0.772z"/></g><g transform="translate(182.9,679)"><path fill-rule="evenodd" fill="#231f20" d="m0 0c-0.316 0.188-0.913 0.527-1.802 0.527-1.334 0-2.364-0.866-2.364-2.118 0-0.889 0.492-1.556 1.838-2.187 1.638-0.774 1.789-1.253 1.789-1.756 0-0.48-0.362-1.334-1.485-1.334-0.89 0-1.65 0.586-2.071 1.007v-1.077c0.62-0.433 1.345-0.725 2.094-0.725 1.042 0 2.329 0.678 2.329 2.187 0 1.182-0.562 1.639-2.119 2.411-0.701 0.35-1.508 0.76-1.508 1.568 0 0.292 0.222 1.227 1.485 1.227 0.808 0 1.451-0.456 1.814-0.724v0.994z"/></g><g transform="translate(188.4,678.6)"><path fill-rule="evenodd" fill="#231f20" d="m0 0c1.604 0 1.791-0.843 1.791-1.416s-0.187-1.416-1.791-1.416h-1.31v2.832h1.31zm-2.188 0.772v-7.98h0.878v3.604h1.404c2.001 0 2.633 1.1 2.633 2.188s-0.632 2.188-2.633 2.188h-2.282z"/></g><g transform="translate(198.2,674.7)"><path fill-rule="evenodd" fill="#231f20" d="m0 0h-2.949l1.451 3.312 1.498-3.312zm-1.205 4.692h-0.585l-3.545-8.027h0.913l1.134 2.563h3.651l1.158-2.563h0.913l-3.639 8.027z"/></g><g transform="translate(205.5,680.2)"><path fill-rule="evenodd" fill="#231f20" d="m0 0c0.023 0.141 0.082 0.503 0.457 0.503 0.233 0 0.689-0.187 0.959-0.292 0.526-0.211 0.702-0.211 0.842-0.211 0.445 0 0.96 0.386 0.96 1.252h-0.422c-0.035-0.199-0.081-0.526-0.456-0.526-0.14 0-0.269 0.011-0.772 0.221-0.632 0.27-0.854 0.282-1.042 0.282-0.818 0-0.901-0.866-0.947-1.229h0.421zm5.043-0.83h-0.855v-6.576l-5.697 6.576h-0.749v-7.981h0.854v6.577l5.698-6.577h0.749v7.981z"/></g><g transform="translate(218.4,674.7)"><path fill-rule="evenodd" fill="#231f20" d="m0 0h-2.948l1.451 3.312 1.497-3.312zm-1.205 4.692h-0.585l-3.545-8.027h0.913l1.135 2.563h3.65l1.158-2.563h0.913l-3.639 8.027z"/></g><path fill-rule="evenodd" fill="#025b88" d="m96.43 713.9h42.52v-42.52h-42.52v42.52z"/><g transform="translate(116.3,684.2)"><path fill-rule="evenodd" fill="#fff" d="m0 0c0 0.998 0.809 1.808 1.807 1.808 0.412 0 0.791-0.138 1.095-0.37 2.015 1.185 4.057 2.244 6.028 3.091-0.001 0.374 0.089 0.686 0.245 0.953-0.719-0.138-1.523-0.308-2.397-0.516-0.535-0.128-1.097-0.269-1.681-0.426-0.07-0.934-0.85-1.67-1.802-1.67-0.584 0-1.103 0.277-1.433 0.706-2.398-0.787-5.026-1.815-7.72-3.154 0.007-0.068 0.011-0.138 0.011-0.209 0-0.998-0.809-1.807-1.807-1.807s-1.807 0.809-1.807 1.807 0.809 1.808 1.807 1.808c0.467 0 0.892-0.177 1.213-0.468 2.385 1.176 5.115 2.301 7.933 3.247 0.063 0.94 0.846 1.684 1.803 1.684 0.579 0 1.094-0.271 1.425-0.695 2.214 0.614 4.421 1.089 6.499 1.363 0.202 0.778 0.908 1.352 1.749 1.352 0.998 0 1.807-0.809 1.807-1.807s-0.809-1.806-1.807-1.806c-0.16 0-0.316 0.02-0.465 0.059 0.026-0.122 0.04-0.249 0.04-0.379 0-0.998-0.809-1.806-1.807-1.806-0.516 0-0.981 0.215-1.31 0.562-1.004-0.452-2.461-1.144-4.202-2.089-0.52-0.282-1.065-0.587-1.631-0.914 0.019-0.105 0.029-0.213 0.029-0.324 0-0.998-0.809-1.807-1.807-1.807-0.412 0-0.793 0.139-1.097 0.371-2.086-1.348-4.329-2.96-6.563-4.845 0.073-0.196 0.113-0.407 0.113-0.628 0-0.998-0.809-1.807-1.807-1.807s-1.807 0.809-1.807 1.807 0.809 1.807 1.807 1.807c0.311 0 0.604-0.079 0.86-0.217 1.997 1.678 4.3 3.39 6.72 4.974-0.024 0.113-0.035 0.228-0.035 0.345"/></g><g transform="translate(104.4,689.7)"><path fill-rule="evenodd" fill="#fff" d="m0 0c0 0.998 0.809 1.807 1.807 1.807 0.635 0 1.193-0.328 1.516-0.823l7.434 1.628c0.132 0.868 0.881 1.534 1.786 1.534 0.631 0 1.186-0.324 1.509-0.813l6.175 1.352c0.047 0.261 0.151 0.503 0.298 0.711-1.24 0.016-2.46 0.025-3.65 0.029-0.25-0.686-0.91-1.173-1.69-1.173-0.77 0-1.44 0.487-1.69 1.173-3.21-0.011-5.924-0.049-7.569-0.077-0.249-0.701-0.918-1.202-1.704-1.202-0.998 0-1.807 0.808-1.807 1.806s0.809 1.808 1.807 1.808c0.761 0 1.413-0.471 1.679-1.137 1.651 0.028 4.377 0.066 7.58 0.077 0.259 0.682 0.918 1.166 1.69 1.166s1.431-0.484 1.69-1.166c2.047-0.007 4.191-0.027 6.307-0.071 0.268 0.663 0.918 1.131 1.676 1.131 0.998 0 1.807-0.81 1.807-1.808s-0.809-1.806-1.807-1.806c-0.399 0-0.769 0.129-1.068 0.348l0.005-0.136c0-0.998-0.809-1.807-1.807-1.807-0.658 0-1.234 0.352-1.55 0.878l-6.121-1.34c-0.121-0.88-0.876-1.558-1.79-1.558-0.639 0-1.201 0.332-1.522 0.833l-7.438-1.626c-0.127-0.874-0.88-1.546-1.789-1.546-0.998 0-1.807 0.81-1.807 1.808"/></g><g transform="translate(123.5,699.8)"><path fill-rule="evenodd" fill="#fff" d="m0 0c0.061 0.279 0.185 0.535 0.358 0.75-0.825 0.187-1.719 0.405-2.668 0.66-0.33-0.442-0.857-0.728-1.451-0.728-0.958 0-1.743 0.746-1.803 1.689-2.603 0.84-5.474 1.936-8.447 3.364-0.322-0.299-0.755-0.483-1.23-0.483-0.998 0-1.807 0.81-1.807 1.808s0.809 1.806 1.807 1.806 1.807-0.808 1.807-1.806l-0.008-0.179c2.48-1.183 5.32-2.327 8.247-3.294 0.33 0.431 0.85 0.709 1.434 0.709 0.96 0 1.744-0.748 1.804-1.692 2.315-0.639 4.622-1.137 6.789-1.425 0.298 0.588 0.908 0.99 1.612 0.99 0.998 0 1.807-0.809 1.807-1.807s-0.809-1.806-1.807-1.806c-0.851 0-1.566 0.589-1.756 1.381-0.349 0.051-0.745 0.114-1.186 0.189 0.047-0.161 0.072-0.332 0.072-0.508 0-0.998-0.809-1.806-1.807-1.806-0.687 0-1.285 0.382-1.59 0.947-1.239-0.143-3.097-0.313-5.375-0.383-0.562-0.018-1.15-0.029-1.76-0.032-0.258-0.684-0.918-1.171-1.692-1.171-0.799 0-1.476 0.517-1.715 1.236-2.805 0.124-5.908 0.439-9.099 1.077-0.322-0.496-0.881-0.825-1.517-0.825-0.998 0-1.807 0.81-1.807 1.808s0.809 1.806 1.807 1.806c0.907 0 1.658-0.668 1.787-1.539 2.738-0.539 5.79-0.903 8.876-1.059 0.272 0.652 0.916 1.11 1.668 1.11 0.784 0 1.452-0.499 1.702-1.198 2.435-0.001 4.794 0.131 6.982 0.411"/></g></g></g></svg>
